<svg width="512" height="512" viewBox="0 0 512 512" fill="none" xmlns="http://www.w3.org/2000/svg">
  <defs>
    <linearGradient id="bgGradient" x1="0%" y1="0%" x2="100%" y2="100%">
      <stop offset="0%" stop-color="#1E3A5F"/>
      <stop offset="100%" stop-color="#0D1B2A"/>
    </linearGradient>
    <linearGradient id="goldGradient" x1="0%" y1="0%" x2="100%" y2="100%">
      <stop offset="0%" stop-color="#C9A962"/>
      <stop offset="100%" stop-color="#B89952"/>
    </linearGradient>
  </defs>

  <!-- Background Circle -->
  <circle cx="256" cy="256" r="240" fill="url(#bgGradient)"/>

  <!-- Outer Ring -->
  <circle cx="256" cy="256" r="230" fill="none" stroke="url(#goldGradient)" stroke-width="4"/>

  <!-- Letter D -->
  <path
    d="M176 128H272C326.772 128 370 171.228 370 226V286C370 340.772 326.772 384 272 384H176V128Z"
    fill="none"
    stroke="url(#goldGradient)"
    stroke-width="24"
    stroke-linecap="round"
    stroke-linejoin="round"
  />

  <!-- Inner D fill (subtle) -->
  <path
    d="M200 152H272C313.421 152 346 184.579 346 226V286C346 327.421 313.421 360 272 360H200V152Z"
    fill="url(#goldGradient)"
    opacity="0.15"
  />

  <!-- Vertical line accent -->
  <line
    x1="176"
    y1="128"
    x2="176"
    y2="384"
    stroke="url(#goldGradient)"
    stroke-width="24"
    stroke-linecap="round"
  />

  <!-- Diamond accent -->
  <path
    d="M300 256L316 240L332 256L316 272L300 256Z"
    fill="url(#goldGradient)"
  />
</svg>
