<svg width="200" height="60" viewBox="0 0 200 60" fill="none" xmlns="http://www.w3.org/2000/svg">
  <!-- Watermark optimized for PDF overlay -->
  <!-- D -->
  <path d="M5 8H20C31 8 40 17 40 28C40 39 31 48 20 48H5V8Z" fill="#1E3A5F" opacity="0.08"/>

  <!-- E -->
  <path d="M48 8H75V14H54V25H72V31H54V42H75V48H48V8Z" fill="#1E3A5F" opacity="0.08"/>

  <!-- A -->
  <path d="M82 48L97 8H107L122 48H114L110 38H94L90 48H82ZM96 32H108L102 15L96 32Z" fill="#1E3A5F" opacity="0.08"/>

  <!-- L -->
  <path d="M130 8H136V42H160V48H130V8Z" fill="#1E3A5F" opacity="0.08"/>

  <!-- Underline -->
  <rect x="5" y="52" width="155" height="2" rx="1" fill="#C9A962" opacity="0.15"/>

  <!-- .be text -->
  <text x="165" y="35" font-family="Inter, sans-serif" font-size="14" fill="#1E3A5F" opacity="0.08" font-weight="500">.be</text>
</svg>
