<svg width="1200" height="630" viewBox="0 0 1200 630" fill="none" xmlns="http://www.w3.org/2000/svg">
  <defs>
    <linearGradient id="bgGrad" x1="0%" y1="0%" x2="100%" y2="100%">
      <stop offset="0%" stop-color="#0D1B2A"/>
      <stop offset="50%" stop-color="#1E3A5F"/>
      <stop offset="100%" stop-color="#0D1B2A"/>
    </linearGradient>
    <linearGradient id="goldGrad" x1="0%" y1="0%" x2="100%" y2="100%">
      <stop offset="0%" stop-color="#C9A962"/>
      <stop offset="100%" stop-color="#B89952"/>
    </linearGradient>
  </defs>

  <!-- Background -->
  <rect width="1200" height="630" fill="url(#bgGrad)"/>

  <!-- Decorative D in background -->
  <path d="M850 100H950C1040 100 1100 160 1100 250V380C1100 470 1040 530 950 530H850V100Z" fill="url(#goldGrad)" opacity="0.05"/>

  <!-- Main Logo D -->
  <g transform="translate(200, 165)">
    <circle cx="150" cy="150" r="140" fill="none" stroke="url(#goldGrad)" stroke-width="4"/>
    <path d="M90 60H150C195 60 230 95 230 140V160C230 205 195 240 150 240H90V60Z" fill="none" stroke="url(#goldGrad)" stroke-width="16" stroke-linecap="round"/>
    <line x1="90" y1="60" x2="90" y2="240" stroke="url(#goldGrad)" stroke-width="16" stroke-linecap="round"/>
    <path d="M170 150L182 138L194 150L182 162L170 150Z" fill="url(#goldGrad)"/>
  </g>

  <!-- DEAL Text -->
  <text x="520" y="340" font-family="Inter, Arial, sans-serif" font-size="120" fill="#FFFFFF" font-weight="700" letter-spacing="-2">DEAL</text>

  <!-- Tagline -->
  <text x="520" y="400" font-family="Inter, Arial, sans-serif" font-size="28" fill="rgba(255,255,255,0.7)" font-weight="400" letter-spacing="4">DIGITAL ESTIMATE PLATFORM</text>

  <!-- Subtitle -->
  <text x="520" y="460" font-family="Inter, Arial, sans-serif" font-size="22" fill="url(#goldGrad)" font-weight="500">Devis professionnels pour artisans belges</text>

  <!-- Bottom bar -->
  <rect x="0" y="590" width="1200" height="40" fill="#0D1B2A"/>
  <rect x="520" y="600" width="160" height="4" rx="2" fill="url(#goldGrad)"/>

  <!-- Badge BE -->
  <g transform="translate(1050, 50)">
    <rect x="0" y="0" width="100" height="40" rx="8" fill="rgba(255,255,255,0.1)"/>
    <text x="50" y="27" font-family="Inter, Arial, sans-serif" font-size="16" fill="#FFFFFF" text-anchor="middle" font-weight="500">Made in BE</text>
  </g>
</svg>
